<?xml version="1.0" standalone="no"?>
<!DOCTYPE svg PUBLIC "-//W3C//DTD SVG 20010904//EN"
 "http://www.w3.org/TR/2001/REC-SVG-20010904/DTD/svg10.dtd">
<svg version="1.0" xmlns="http://www.w3.org/2000/svg"
 width="640.000000pt" height="640.000000pt" viewBox="0 0 640.000000 640.000000"
 preserveAspectRatio="xMidYMid meet">
<metadata>
Created by potrace 1.14, written by Peter Selinger 2001-2017
</metadata>
<g transform="translate(0.000000,640.000000) scale(0.100000,-0.100000)"
fill="#000000" stroke="none">
<path d="M2530 5400 c-412 -87 -715 -364 -837 -765 l-28 -90 -3 -641 c-3 -605
-2 -646 17 -731 81 -370 346 -668 703 -791 177 -60 203 -62 934 -62 716 0 753
2 913 56 328 110 586 370 690 695 49 151 51 188 51 789 0 620 -4 671 -59 834
-107 313 -369 569 -691 674 -155 50 -184 52 -919 51 -623 0 -694 -2 -771 -19z
m493 -465 c104 -27 185 -82 247 -166 l26 -37 41 53 c125 161 350 209 535 114
72 -37 152 -121 187 -199 117 -252 -38 -539 -319 -590 -146 -26 -318 42 -405
161 l-37 49 -28 -38 c-92 -128 -263 -199 -413 -173 -344 60 -481 469 -238 712
110 110 259 152 404 114z m587 -905 c212 -12 337 -25 452 -50 83 -18 169 -53
167 -68 0 -4 -108 -97 -239 -207 -131 -110 -239 -202 -239 -205 -1 -3 25 -18
57 -34 253 -124 461 -361 553 -632 31 -91 64 -268 54 -285 -10 -16 -134 -75
-216 -102 -141 -47 -176 -49 -934 -45 l-710 3 -90 28 c-103 32 -274 113 -282
134 -3 8 0 49 7 91 55 345 281 650 598 809 74 37 91 48 80 58 -12 11 -223 189
-358 304 -101 85 -95 78 -80 95 7 9 41 25 76 36 207 64 676 93 1104 70z"/>
<path d="M2926 4585 c-133 -47 -173 -202 -80 -305 122 -134 354 -52 354 125 0
48 -25 108 -57 137 -30 27 -105 58 -143 57 -19 0 -52 -6 -74 -14z m100 -132
c17 -40 13 -88 -11 -119 -15 -19 -15 -18 -35 5 -24 28 -27 97 -4 129 21 31 33
28 50 -15z"/>
<path d="M3526 4586 c-49 -18 -94 -60 -117 -111 -25 -54 -24 -92 6 -151 69
-138 256 -153 351 -28 26 33 29 46 29 109 0 63 -3 76 -28 108 -53 70 -161 102
-241 73z m64 -132 c15 -40 12 -90 -8 -114 -23 -29 -38 -20 -53 29 -23 77 34
156 61 85z"/>
<path d="M1058 2103 c-2 -29 -8 -39 -23 -41 -11 -2 -32 -16 -47 -30 -23 -21
-28 -34 -28 -72 0 -51 21 -80 73 -99 26 -10 27 -13 27 -81 0 -77 -6 -82 -66
-60 -28 11 -43 1 -44 -27 0 -13 52 -33 86 -33 21 0 24 -5 24 -40 0 -38 2 -40
30 -40 28 0 30 2 30 39 0 36 3 40 35 51 97 32 100 152 5 200 l-40 20 0 66 0
66 39 -7 c33 -5 39 -4 44 14 6 25 3 27 -46 36 -34 7 -37 10 -37 41 0 31 -3 34
-29 34 -27 0 -30 -3 -33 -37z m2 -145 c0 -50 0 -51 -20 -33 -22 20 -26 55 -8
73 22 22 28 13 28 -40z m96 -163 c18 -28 11 -60 -17 -75 -18 -10 -19 -7 -19
45 0 60 10 69 36 30z"/>
<path d="M2193 2133 l-23 -4 0 -234 c0 -150 4 -236 10 -240 6 -4 44 -9 84 -12
94 -7 151 16 184 76 26 46 30 133 8 185 -27 64 -103 98 -173 77 l-33 -10 0 85
c0 91 2 88 -57 77z m176 -239 c15 -20 21 -41 21 -81 0 -72 -28 -103 -95 -103
l-45 0 0 99 c0 108 0 109 62 110 28 1 41 -5 57 -25z"/>
<path d="M1523 2081 c-47 -22 -73 -62 -73 -115 0 -51 38 -90 120 -121 97 -37
128 -86 75 -121 -25 -16 -108 -16 -161 1 -18 5 -23 1 -32 -25 -10 -29 -9 -32
16 -42 43 -17 155 -22 195 -9 53 18 87 63 87 114 0 66 -27 99 -106 132 -64 26
-114 64 -114 86 0 5 9 18 20 29 22 22 81 27 126 10 31 -12 42 -5 46 30 2 20
-3 27 -32 37 -51 18 -119 15 -167 -6z"/>
<path d="M5230 2087 c-52 -17 -114 -84 -129 -140 -17 -61 -9 -151 18 -204 38
-76 112 -109 227 -100 106 8 106 7 105 115 0 51 0 97 -1 102 0 6 -18 10 -40
10 l-40 0 0 -80 0 -80 -55 0 c-46 0 -59 4 -88 30 -40 35 -62 103 -52 160 18
106 108 155 217 116 37 -13 37 -13 48 17 5 17 9 31 8 32 -36 28 -162 41 -218
22z"/>
<path d="M4320 1870 l0 -220 140 0 140 0 0 35 0 35 -100 0 -100 0 0 185 0 185
-40 0 -40 0 0 -220z"/>
<path d="M4650 1922 c0 -196 8 -222 81 -260 56 -30 153 -28 196 4 65 48 68 60
71 250 l3 174 -40 0 -40 0 -3 -166 -3 -166 -28 -24 c-31 -26 -90 -32 -118 -11
-34 26 -39 55 -39 211 l0 156 -40 0 -40 0 0 -168z"/>
<path d="M1860 1981 c-14 -4 -25 -12 -24 -19 4 -49 1 -47 68 -44 57 3 65 1 80
-19 28 -40 21 -49 -40 -49 -95 0 -144 -37 -144 -109 0 -72 72 -108 194 -96
l76 7 0 132 c0 147 -7 167 -66 192 -35 15 -101 17 -144 5z m128 -190 c8 -5 12
-23 10 -47 -3 -37 -5 -39 -40 -42 -51 -4 -78 12 -78 47 0 19 7 31 23 39 27 13
67 15 85 3z"/>
<path d="M2912 1969 c-56 -28 -82 -78 -82 -156 0 -78 23 -122 80 -151 39 -20
55 -23 114 -18 38 3 73 9 77 13 4 4 5 19 2 33 -4 25 -7 25 -71 22 -57 -3 -71
-1 -94 18 -16 12 -28 30 -28 41 0 18 8 19 110 19 l110 0 0 43 c0 120 -112 190
-218 136z m121 -67 c9 -8 17 -23 17 -34 0 -16 -9 -18 -70 -18 -75 0 -83 7 -55
47 24 34 71 36 108 5z"/>
<path d="M3595 1981 c-16 -3 -29 -10 -27 -14 1 -4 2 -17 2 -29 0 -22 3 -23 61
-20 65 4 99 -13 99 -48 0 -15 -12 -18 -71 -22 -65 -3 -74 -6 -100 -36 -35 -39
-38 -87 -8 -125 29 -38 83 -51 173 -42 l76 7 0 132 c0 105 -3 136 -16 155 -31
44 -105 60 -189 42z m123 -190 c8 -5 12 -23 10 -47 -3 -37 -5 -39 -40 -42 -48
-4 -78 12 -78 43 0 41 69 71 108 46z"/>
<path d="M3985 1985 c-5 -2 -27 -6 -47 -10 l-38 -6 0 -159 0 -160 40 0 40 0 0
136 0 135 58 -2 57 -3 3 31 c3 27 0 31 -29 37 -33 6 -67 7 -84 1z"/>
<path d="M2520 1950 l0 -30 75 0 c41 0 75 -3 75 -6 0 -3 -27 -40 -59 -83 -73
-96 -101 -141 -101 -163 0 -16 13 -18 135 -18 l135 0 0 30 0 29 -86 3 -86 3
38 50 c21 28 59 75 86 106 31 37 48 66 48 83 l0 26 -130 0 -130 0 0 -30z"/>
<path d="M3184 1948 c4 -18 30 -91 59 -163 l52 -130 38 -3 c37 -3 37 -3 68 65
17 37 46 112 65 166 l34 98 -41 -3 -41 -3 -34 -105 c-19 -57 -38 -108 -43
-113 -8 -8 -62 126 -76 191 -6 30 -10 32 -47 32 -40 0 -40 0 -34 -32z"/>
</g>
</svg>
